<svg version="1.1" id="Layer_1" viewBox="0 0 64 18" xmlns="http://www.w3.org/2000/svg">
  <path fill="#000000" d="M 44.049 17.505 C 43.831 17.232 43.637 16.958 43.428 16.671 C 43.203 16.353 42.993 16.047 42.762 15.717 C 42.163 14.952 41.579 14.225 41.015 13.476 C 40.308 12.538 39.361 12.37 38.312 12.531 C 38.035 12.576 37.77 12.693 37.518 12.772 C 37.569 13.236 37.637 13.64 37.646 14.044 C 37.67 15.111 37.67 16.179 37.672 17.246 C 37.672 17.323 37.624 17.399 37.574 17.466 C 37.396 17.466 37.243 17.478 37.062 17.482 C 36.217 17.491 35.397 17.507 34.578 17.523 C 34.488 17.512 34.402 17.503 34.282 17.489 C 34.302 17.267 34.322 17.053 34.337 16.812 C 34.339 16.183 34.369 13.527 34.407 12.829 C 34.42 12.606 34.516 12.386 34.598 12.136 C 34.702 12 34.781 11.889 34.879 11.774 C 35.448 11.279 35.964 10.727 36.566 10.318 C 37.52 9.674 38.617 9.574 39.738 9.618 C 40.431 9.646 41.143 9.678 41.822 9.56 C 43.556 9.263 44.551 7.739 44.207 6.012 C 44.073 5.157 43.516 4.668 42.895 4.2 C 42.304 3.919 41.701 3.708 41.063 3.703 C 39.37 3.692 37.676 3.69 35.982 3.715 C 35.382 3.725 34.783 3.819 34.162 3.871 C 33.887 3.877 33.71 3.746 33.562 3.542 C 33.421 3.351 33.276 3.161 33.115 2.988 C 32.733 2.572 32.341 2.165 31.945 1.738 C 31.604 1.409 31.271 1.098 30.937 0.784 C 30.922 0.624 31.007 0.603 31.136 0.601 C 31.784 0.601 37.63 0.592 39.858 0.596 C 40.164 0.596 40.468 0.578 40.799 0.576 C 40.997 0.58 41.168 0.576 41.364 0.578 C 41.986 0.671 42.585 0.753 43.194 0.855 C 44.288 1.248 45.285 1.77 46.079 2.678 C 46.125 2.749 46.164 2.805 46.207 2.856 C 47.268 4.083 47.632 5.559 47.47 7.155 C 47.299 8.818 46.435 10.128 45.256 11.21 C 44.905 11.531 44.476 11.757 44.06 12.044 C 44.564 12.681 47.11 15.92 47.902 16.921 C 48.611 16.156 49.28 15.431 49.969 14.696 C 50.242 14.296 50.594 14.18 51.04 14.227 C 51.473 14.273 51.912 14.259 52.349 14.257 C 53.502 14.252 54.657 14.312 55.804 14.22 C 57.368 14.091 58.606 13.278 59.539 11.958 C 60.284 10.903 60.359 9.681 60.327 8.409 C 60.313 8.292 60.297 8.195 60.286 8.1 C 60.098 6.407 59.25 5.189 57.823 4.362 C 57.256 4.157 56.703 3.967 56.134 3.759 C 56.075 3.73 56.031 3.703 55.986 3.701 C 55.294 3.681 54.6 3.646 53.906 3.644 C 53.023 3.639 52.142 3.658 51.26 3.676 C 50.62 3.69 49.966 3.826 49.362 3.415 C 49.308 3.348 49.268 3.295 49.229 3.242 C 48.836 2.713 48.445 2.184 48.046 1.636 C 47.865 1.393 47.69 1.171 47.509 0.93 C 47.459 0.807 47.416 0.707 47.371 0.605 C 48.191 0.603 52.813 0.58 54.284 0.58 C 54.906 0.58 55.538 0.546 56.152 0.624 C 57.12 0.749 58.059 1.017 58.961 1.414 C 60.035 1.886 60.958 2.567 61.713 3.521 C 62.009 3.965 62.303 4.389 62.567 4.834 C 63.34 6.134 63.604 7.573 63.589 9.112 C 63.597 11.341 62.707 13.169 61.319 14.738 C 60.373 15.808 59.16 16.478 57.834 16.916 C 56.594 17.33 55.319 17.503 54.018 17.503 C 50.704 17.498 47.388 17.5 44.049 17.505 Z"></path>
  <path fill="#000000" d="M 9.927 17.575 C 9.668 17.582 9.408 17.589 9.149 17.591 C 6.277 17.621 3.404 17.651 0.505 17.679 C 0.465 17.034 0.459 14.913 0.459 14.543 C 0.671 14.532 0.826 14.523 1.01 14.518 C 3.774 14.525 6.516 14.527 9.258 14.523 C 9.489 14.523 9.723 14.495 9.947 14.439 C 10.6 14.285 11.114 13.923 11.433 13.262 C 11.777 11.922 10.902 11.092 10.063 10.845 C 10.008 10.828 9.964 10.821 9.896 10.808 C 9.408 10.782 8.945 10.75 8.483 10.75 C 6.879 10.748 1.613 10.746 0.557 10.746 C 0.525 9.844 0.496 8.985 0.466 8.125 C 0.498 7.968 0.527 7.814 0.601 7.65 C 2.772 7.655 8.437 7.682 9.161 7.694 C 9.317 7.696 9.454 7.689 9.618 7.687 C 9.866 7.68 10.089 7.673 10.311 7.659 C 11.213 7.601 12.138 6.377 11.658 5.318 C 11.621 5.198 11.597 5.093 11.545 5.007 C 11.071 4.205 10.37 3.812 9.459 3.755 C 9.245 3.725 9.052 3.697 8.858 3.697 C 7.248 3.694 0.844 3.715 0.376 3.715 C 0.444 2.634 0.396 1.638 0.494 0.624 C 3.446 0.605 6.472 0.605 9.387 0.601 C 10.065 0.601 10.714 0.739 11.343 0.991 C 12.24 1.348 13.03 1.886 13.746 2.549 C 14.173 3.124 14.555 3.73 14.736 4.441 C 14.842 4.859 14.901 5.288 14.989 5.76 C 15.126 7.303 14.426 8.414 13.473 9.394 C 13.775 9.773 14.079 10.158 14.383 10.546 C 14.664 11.24 14.849 11.961 14.784 12.719 C 14.746 13.187 14.647 13.652 14.571 14.16 C 14.215 15.047 13.624 15.685 12.942 16.233 C 12.048 16.948 11.031 17.371 9.927 17.575 Z"></path>
  <path fill="#000000" d="M 24.403 17.318 C 24.194 17.341 23.988 17.366 23.742 17.394 C 23.676 17.409 23.645 17.418 23.618 17.429 C 23.467 17.436 23.317 17.441 23.12 17.45 C 22.937 17.464 22.803 17.475 22.667 17.487 C 22.034 17.482 21.399 17.478 20.72 17.471 C 20.444 17.466 20.214 17.464 19.985 17.462 C 19.444 17.457 18.903 17.452 18.318 17.45 C 18.211 17.462 16.364 17.646 16.008 17.684 C 16.691 16.535 17.367 15.401 18.067 14.234 C 18.257 14.195 18.423 14.178 18.589 14.183 C 20.086 14.213 21.583 14.264 23.081 14.278 C 23.967 14.285 24.806 14.042 25.602 13.592 C 26.328 13.24 26.94 12.76 27.449 12.115 C 28.503 10.771 28.595 9.23 28.363 7.618 C 28.125 6.249 27.358 5.275 26.266 4.543 C 26.162 4.475 26.055 4.42 25.913 4.346 C 25.06 3.928 24.191 3.722 23.297 3.708 C 22.036 3.687 20.772 3.725 19.51 3.764 C 19.145 3.776 18.785 3.877 18.421 3.937 C 17.999 3.537 17.573 3.14 17.155 2.736 C 17.038 2.625 16.941 2.495 16.808 2.35 C 16.241 1.8 15.71 1.264 15.229 0.596 C 15.613 0.596 15.927 0.596 16.241 0.596 C 17.062 0.599 21.561 0.567 22.937 0.585 C 23.75 0.596 24.567 0.546 25.372 0.765 C 27.111 1.234 28.626 2.095 29.861 3.498 C 30.019 3.717 30.172 3.919 30.325 4.117 C 30.902 5.034 31.328 6.021 31.522 7.105 C 32 9.756 31.42 12.131 29.778 14.216 C 28.47 15.87 26.755 16.785 24.776 17.214 C 24.704 17.23 24.631 17.251 24.523 17.272 C 24.456 17.289 24.43 17.305 24.403 17.318 Z"></path>
</svg>